# xmcd
#
# Track frame offsets:
#	150
#	34735
#	57437
#	82227
#	104210
#	132950
#	155595
#	192612
#	227085
#	257755
#	295797
#
# Disc length: 4342 seconds
#
# Revision: 0
# Processed by: cddbd v1.5.1PL0 Copyright (c) Steve Scherf et al.
# Submitted via: audiograbber 1.83.01
#
DISCID=a810f40b
DTITLE=Club2Def - Chill Zone - [CD3) book 1.2
DYEAR=1900
DGENRE=Ambient
TTITLE0=Holmes&Mc Millian - Total Toxic Tranquility
TTITLE1=The Map - Ebuso
TTITLE2=Cirrus - Superstar DJ
TTITLE3=Dr Baker - Would You Like To Seduce Me
TTITLE4=Peace Of Mind - Tranquility
TTITLE5=Dub Tractor - Part Orange
TTITLE6=Electric Skychurch - Deus
TTITLE7=Skin Trade - Psalm
TTITLE8=Mike James - Nu Consciousness Part 1
TTITLE9=Acoustic - Tease
TTITLE10=Electric Skychurch - Limp
EXTD=
EXTT0=
EXTT1=
EXTT2=
EXTT3=
EXTT4=
EXTT5=
EXTT6=
EXTT7=
EXTT8=
EXTT9=
EXTT10=
PLAYORDER=
